<svg xmlns="http://www.w3.org/2000/svg" viewBox="0 0 655.88 946.76">

<g fill="none" stroke="#7f7f7f" stroke-width="1.5" stroke-miterlimit="22">

	<path d="M162.9 161.29l0 51.2 74.4 0m249.18 -51.2l0 51.2 -80.99 0m-84.09 -156.83l0 32.98 -158.49 0 0 16.56m158.51 -16.55l165.07 -0 0 16.56m-165.09 135.38l0 56.14m0 55.96l0 26.47m224.76 79.55l0 -12.71 -224.76 0 -217.95 0 0 12.71m217.95 -43.29l0 43.29m-217.95 35.95l0 34.16m217.95 -34.16l0 43.6m224.76 -43.6l0 34.16m0 54.26l0 65.18m-224.76 -74.61l0 74.61m-217.95 -65.18l0 65.18m442.71 54.26l0 64.79 -196.02 0m-246.69 -64.79l0 64.79 189.2 0m28.74 21.23l0 16.77m0 -102.79l0 43.51m0 115.55l0 29.36m0 -475.52l0 30.58"/>
	<path d="M412.82 892.07c34.01,0 34.01,54.26 0,54.26l-182.87 0c-33.96,0 -34.02,-54.26 0,-54.26l182.87 0zm22.37 -85.89c33.97,0 34.04,54.26 0,54.26l-227.6 0c-34.02,0 -33.97,-54.26 0,-54.26l227.6 0zm-113.8 -17.65c-37.87,0 -37.83,-42.51 0,-42.51 37.83,0 37.87,42.51 0,42.51zm285.09 -140.28c3.3,0 5.94,2.64 5.94,5.94l0 42.33c0,3.29 -2.64,5.99 -5.94,5.99l-120.66 0c-3.3,0 -5.94,-2.69 -5.94,-5.99l0 -42.33c0,-3.32 2.67,-5.94 5.94,-5.94l120.66 0zm-345.42 0l120.66 0c3.3,0 5.94,2.64 5.94,5.94l0 42.33c0,3.29 -2.64,5.99 -5.94,5.99l-120.66 0c-3.3,0 -5.94,-2.69 -5.94,-5.99l0 -42.33c0,-3.3 2.64,-5.94 5.94,-5.94zm-96.59 0c3.3,0 5.94,2.64 5.94,5.94l0 42.33c0,3.29 -2.64,5.99 -5.94,5.99l-122.06 0c-3.3,0 -5.94,-2.69 -5.94,-5.99l0 -42.33c0,-3.32 2.66,-5.94 5.94,-5.94l122.06 0zm460.53 -119.44c3.28,0 5.94,2.67 5.94,5.94l0 42.37c0,3.28 -2.66,5.94 -5.94,5.94l-157.7 0c-3.28,0 -5.94,-2.67 -5.94,-5.94l0 -42.37c0,-3.28 2.66,-5.94 5.94,-5.94l157.7 0zm-249.92 9.44c3.28,0 5.94,2.67 5.94,5.94l0 23.5c0,3.28 -2.67,5.94 -5.94,5.94l-107.38 0c-3.28,0 -5.94,-2.66 -5.94,-5.94l0 -23.5c0,-3.28 2.67,-5.94 5.94,-5.94l107.38 0zm-210.61 -9.44c3.28,0 5.94,2.67 5.94,5.94 0,14.12 0,28.25 0,42.37 0,3.28 -2.67,5.94 -5.94,5.94l-122.06 0c-3.28,0 -5.94,-2.67 -5.94,-5.94l0 -42.37c0,-3.28 2.66,-5.94 5.94,-5.94l122.06 0zm474.86 -69.81c21.5,0 21.45,35.38 0,35.38l-186.36 0c-21.44,0 -21.51,-35.38 0,-35.38l186.36 0zm-232.8 0c21.5,0 21.45,35.38 0,35.38l-170.29 0c-21.44,0 -21.51,-35.38 0,-35.38l170.29 0zm-216.2 0c21.5,0 21.45,35.38 0,35.38l-173.78 0c-21.44,0 -21.51,-35.38 0,-35.38l173.78 0zm205.72 -79.29c21.43,0 21.51,35.38 0,35.38l-149.32 0c-21.51,0 -21.44,-35.38 0,-35.38l149.32 0zm23.07 -82.09c33.97,0 34.04,54.26 0,54.26l-195.45 0c-34.04,0 -33.97,-54.26 0,-54.26l195.45 0zm-40.19 -112.27c34.01,0 34,54.26 0,54.26l-115.07 0c-33.97,0 -34.01,-54.26 0,-54.26l115.07 0zm183.26 -79.25c34.07,0 34.07,54.26 0,54.26l-151.41 0c-33.96,0 -34.02,-54.26 0,-54.26l151.41 0zm-333.71 0c34.01,0 34.01,54.26 0,54.26l-131.14 0c-34.06,0 -34.06,-54.26 0,-54.26l131.14 0zm168.28 -105.68c34.01,0 34,54.26 0,54.26l-150.72 0c-33.97,0 -34.01,-54.26 0,-54.26l150.72 0z"/>
	<path fill="#7F7F7F" d="M317.24 883.76l4.15 7.16 4.11 -7.16 -8.26 0zm0 -85.58l4.15 7.12 4.11 -7.12 -8.26 0zm-31.76 -26.78l7.17 -4.11 -7.17 -4.15 0 8.26zm71.82 -8.26l-7.17 4.15 7.17 4.11 0 -8.26zm-40.06 -24.24l4.15 7.12 4.11 -7.12 -8.26 0zm224.81 -97.81l4.11 7.16 4.15 -7.16 -8.26 0zm-224.81 0l4.15 7.16 4.11 -7.16 -8.26 0zm-217.95 0l4.15 7.16 4.11 -7.16 -8.26 0zm0 -119.44l4.15 7.16 4.11 -7.16 -8.26 0zm217.95 9.44l4.15 7.16 4.11 -7.16 -8.26 0zm224.81 -9.44l4.11 7.16 4.15 -7.16 -8.26 0zm0 -70.11l4.11 7.16 4.15 -7.16 -8.26 0zm-224.81 0l4.15 7.16 4.11 -7.16 -8.26 0zm-217.95 0l4.15 7.16 4.11 -7.16 -8.26 0zm217.95 -79.51l4.15 7.12 4.11 -7.12 -8.26 0zm0 -82.48l4.15 7.16 4.11 -7.16 -8.26 0zm-87.11 -72.91l7.17 -4.15 -7.17 -4.11 0 8.26zm182.52 -8.26l-7.17 4.11 7.17 4.15 0 -8.26zm69.72 -110.35l4.11 7.16 4.15 -7.16 -8.26 0zm-323.62 0l4.15 7.16 4.11 -7.16 -8.26 0z"/>
</g>

<g fill="#333" font-weight="normal" font-size="13.98px" font-family="Arial">

	<text x="256.03" y="23.73">Файлы секвенатора</text>
	<text x="291.68" y="42.6">*.fastq.gz</text>
	<text x="109.25" y="129.27">Удаление ридов</text>
	<text x="107.56" y="148.15">низкого качества</text>
	<text x="422.99" y="129.27">Автоопределение и</text>
	<text x="419.89" y="148.15">удаление адаптеров</text>
	<text x="273.51" y="208.95">Картирование</text>
	<text x="286.09" y="227.83">BWA-MEM</text>
	<text x="233.67" y="320.79">Маркировка дубликатов и</text>
	<text x="242.06" y="339.66">сортировка BAM-файла</text>
	<text x="254.64" y="403.27">Рекалибровка BQSR</text>
	<text x="23.98" y="482.25">Герминальные мутации</text>
	<text x="244.15" y="482.25">Соматические мутации</text>
	<text x="460.83" y="482.25">Жидкая биопсия (плазма)</text>
	<text x="86.19" y="552.15">GATK</text>
	<text x="51.94" y="571.02">HaplotypeCaller</text>
	<text x="275.61" y="561.23">GATK Mutect2</text>
	<text x="494.38" y="552.15">GATK Mutect2 в</text>
	<text x="474.81" y="571.02">режиме Liquid Biopsy</text>
	<text x="52.64" y="671.67">Фильтрация по</text>
	<text x="49.84" y="690.54">качеству + CNN</text>
	<text x="270.71" y="671.67">Фильтрация по</text>
	<text x="292.38" y="690.54">качеству</text>
	<text x="495.78" y="671.67">Фильтрация по</text>
	<text x="516.75" y="690.54">качеству</text>
	<text x="308.46" y="773.02">VCF</text>
	<text x="216.89" y="829.64">Аннотирование записей, поиск</text>
	<text x="225.28" y="848.51">мутаций из внутренней базы</text>
	<text x="239.26" y="915.61">Внесение в базу данных,</text>
	<text x="262.33" y="934.48">генерация отчета</text>
</g>

<g fill="#333" font-weight="normal" font-size="9.09px" font-family="Arial">
	<text x="332.22" y="599.68">+Strelka2</text>
	<text x="332.22" y="612.26">+VarDict</text>

	<text x="118.34" y="603.17">+Strelka2</text>
	<text x="118.34" y="615.75">+Freebayes</text>

	<text x="563.58" y="603.17">+Strelka2</text>
	<text x="563.58" y="615.75">+VarDict</text>
</g>
</svg>
